<svg width="444" height="332" viewBox="0 0 444 332" fill="none" xmlns="http://www.w3.org/2000/svg">
<path d="M444 291.571H0V291.793H444V291.571Z" fill="#E0E0E0"/>
<path d="M361.15 298.32H332.77V298.542H361.15V298.32Z" fill="#E0E0E0"/>
<path d="M396.918 298.213H365.119V298.435H396.918V298.213Z" fill="#E0E0E0"/>
<path d="M248.826 302.103H190.627V302.325H248.826V302.103Z" fill="#E0E0E0"/>
<path d="M185.513 302.103H176.064V302.325H185.513V302.103Z" fill="#E0E0E0"/>
<path d="M131.69 297.991H103.451V298.213H131.69V297.991Z" fill="#E0E0E0"/>
<path d="M301.476 297.991H275.857V298.213H301.476V297.991Z" fill="#E0E0E0"/>
<path d="M83.7654 300.593H57.6582V300.815H83.7654V300.593Z" fill="#E0E0E0"/>
<path d="M210.455 251.966H38.9913C37.6481 251.964 36.3606 251.429 35.4117 250.478C34.4627 249.527 33.9297 248.239 33.9297 246.896V5.86605C33.9414 4.53052 34.4795 3.25353 35.4272 2.31246C36.375 1.3714 37.6557 0.842254 38.9913 0.839966H210.455C211.8 0.839966 213.09 1.37418 214.041 2.32508C214.992 3.27597 215.526 4.56567 215.526 5.91045V246.896C215.526 248.241 214.992 249.53 214.041 250.481C213.09 251.432 211.8 251.966 210.455 251.966ZM38.9913 1.01757C37.7069 1.01992 36.476 1.53178 35.5686 2.44079C34.6613 3.3498 34.1517 4.58169 34.1517 5.86605V246.896C34.1517 248.18 34.6613 249.412 35.5686 250.321C36.476 251.23 37.7069 251.742 38.9913 251.744H210.455C211.74 251.742 212.972 251.23 213.881 250.322C214.79 249.413 215.301 248.181 215.304 246.896V5.86605C215.301 4.58087 214.79 3.349 213.881 2.44025C212.972 1.53149 211.74 1.01991 210.455 1.01757H38.9913Z" fill="#E0E0E0"/>
<path d="M402.539 251.966H231.067C229.723 251.964 228.434 251.429 227.484 250.479C226.533 249.528 225.998 248.24 225.996 246.896V5.86605C226.01 4.52971 226.55 3.25273 227.499 2.31191C228.448 1.37109 229.73 0.842229 231.067 0.839966H402.539C403.873 0.844587 405.152 1.37476 406.098 2.31558C407.043 3.2564 407.58 4.53205 407.592 5.86605V246.896C407.592 248.238 407.06 249.525 406.113 250.475C405.166 251.425 403.881 251.962 402.539 251.966ZM231.067 1.01757C229.781 1.01991 228.55 1.53149 227.641 2.44025C226.732 3.349 226.22 4.58087 226.218 5.86605V246.896C226.22 248.181 226.732 249.413 227.641 250.322C228.55 251.23 229.781 251.742 231.067 251.744H402.539C403.825 251.742 405.056 251.23 405.965 250.322C406.874 249.413 407.385 248.181 407.388 246.896V5.86605C407.385 4.58087 406.874 3.349 405.965 2.44025C405.056 1.53149 403.825 1.01991 402.539 1.01757H231.067Z" fill="#E0E0E0"/>
<path d="M135.153 232.386C116.004 232.391 97.2825 226.716 81.3591 216.079C65.4356 205.441 53.0253 190.32 45.6986 172.627C38.3719 154.934 36.458 135.466 40.199 116.685C43.9401 97.9041 53.168 80.655 66.7152 67.1203C66.7359 67.0988 66.7607 67.0817 66.7882 67.0701C66.8156 67.0584 66.8452 67.0524 66.875 67.0524C66.9048 67.0524 66.9344 67.0584 66.9618 67.0701C66.9893 67.0817 67.0141 67.0988 67.0348 67.1203L84.8481 84.9336C84.8696 84.9543 84.8867 84.9791 84.8984 85.0066C84.91 85.0341 84.9161 85.0636 84.9161 85.0934C84.9161 85.1233 84.91 85.1528 84.8984 85.1803C84.8867 85.2077 84.8696 85.2326 84.8481 85.2533C73.7622 96.3316 66.6435 110.76 64.5969 126.298C62.5502 141.836 65.6902 157.616 73.5294 171.187C81.3686 184.758 93.4685 195.361 107.951 201.352C122.433 207.342 138.488 208.384 153.624 204.316C153.65 204.305 153.679 204.299 153.708 204.299C153.737 204.299 153.766 204.305 153.792 204.316C153.844 204.346 153.882 204.393 153.899 204.45L160.426 228.798C160.448 228.853 160.448 228.913 160.426 228.967C160.393 229.019 160.343 229.057 160.284 229.074C152.088 231.271 143.639 232.385 135.153 232.386ZM66.875 67.5909C51.9378 82.6015 42.3603 102.114 39.6228 123.113C36.8853 144.111 41.1402 165.427 51.7299 183.765C62.3195 202.104 78.6544 216.444 98.2098 224.569C117.765 232.694 139.452 234.153 159.92 228.719L153.508 204.796C138.305 208.824 122.198 207.735 107.676 201.697C93.1528 195.66 81.0212 185.009 73.154 171.39C65.2868 157.772 62.1215 141.942 64.1468 126.345C66.172 110.748 73.2753 96.2514 84.3597 85.0934L66.875 67.5909Z" fill="#E0E0E0"/>
<path d="M185.663 85.3154C185.604 85.316 185.547 85.2938 185.503 85.2533C172.146 71.9251 154.046 64.4398 135.176 64.4398C116.306 64.4398 98.2066 71.9251 84.8487 85.2533C84.8287 85.2745 84.8047 85.2915 84.7779 85.303C84.7512 85.3146 84.7224 85.3206 84.6933 85.3206C84.6641 85.3206 84.6353 85.3146 84.6086 85.303C84.5819 85.2915 84.5578 85.2745 84.5379 85.2533L66.7157 67.44C66.6945 67.4201 66.6775 67.396 66.666 67.3693C66.6544 67.3426 66.6484 67.3137 66.6484 67.2846C66.6484 67.2555 66.6544 67.2267 66.666 67.1999C66.6775 67.1732 66.6945 67.1491 66.7157 67.1292C84.8776 48.9786 109.504 38.7827 135.181 38.7827C160.857 38.7827 185.483 48.9786 203.645 67.1292C203.684 67.1717 203.705 67.2271 203.705 67.2846C203.705 67.3421 203.684 67.3975 203.645 67.44L185.823 85.2622C185.778 85.2994 185.721 85.3185 185.663 85.3154ZM135.181 64.0034C154.098 63.9701 172.255 71.4469 185.663 84.7915L203.166 67.2802C185.099 49.3133 160.656 39.228 135.176 39.228C109.697 39.228 85.2529 49.3133 67.1864 67.2802L84.6977 84.7915C98.1036 71.442 116.262 63.9617 135.181 63.9946V64.0034Z" fill="#E0E0E0"/>
<path d="M160.196 229.1C160.158 229.108 160.119 229.108 160.081 229.1C160.056 229.086 160.035 229.066 160.018 229.044C160.002 229.021 159.99 228.995 159.983 228.967L153.456 204.618C153.434 204.564 153.434 204.504 153.456 204.45C153.47 204.425 153.489 204.403 153.512 204.387C153.535 204.37 153.562 204.358 153.589 204.352C165.666 201.126 176.68 194.776 185.522 185.941C194.364 177.106 200.723 166.098 203.959 154.024C207.194 141.95 207.192 129.237 203.952 117.164C200.712 105.091 194.349 94.0852 185.504 85.2533C185.465 85.2093 185.443 85.1524 185.443 85.0934C185.443 85.0345 185.465 84.9775 185.504 84.9336L203.353 67.1203C203.374 67.0988 203.398 67.0817 203.426 67.0701C203.453 67.0584 203.483 67.0524 203.513 67.0524C203.542 67.0524 203.572 67.0584 203.599 67.0701C203.627 67.0817 203.652 67.0988 203.672 67.1203C215.615 79.1679 224.191 94.1359 228.544 110.532C232.897 126.927 232.876 144.178 228.482 160.563C224.089 176.948 215.476 191.895 203.504 203.913C191.531 215.931 176.617 224.6 160.249 229.056L160.196 229.1ZM153.936 204.68L160.356 228.603C176.645 224.191 191.491 215.58 203.407 203.63C215.324 191.681 223.894 176.812 228.261 160.51C232.628 144.209 232.638 127.046 228.29 110.74C223.942 94.4335 215.389 79.5544 203.486 67.5909L185.975 85.0934C194.814 93.9799 201.165 105.031 204.393 117.142C207.621 129.254 207.613 142 204.369 154.107C201.126 166.214 194.76 177.257 185.91 186.132C177.059 195.007 166.034 201.403 153.936 204.68Z" fill="#E0E0E0"/>
<path d="M87.1309 275.756V291.571C100.477 291.57 113.45 287.166 124.037 279.04C134.625 270.915 142.235 259.523 145.687 246.631C149.14 233.739 148.242 220.068 143.133 207.739C138.024 195.41 128.989 185.111 117.429 178.44L109.526 192.142C118.068 197.073 124.744 204.685 128.519 213.798C132.294 222.91 132.957 233.013 130.405 242.54C127.854 252.068 122.229 260.487 114.405 266.492C106.581 272.498 96.9941 275.754 87.1309 275.756Z" fill="#E0E0E0"/>
<path d="M26.5078 230.947C26.5102 247.025 32.898 262.444 44.2667 273.812C55.6354 285.181 71.0539 291.569 87.1316 291.571V275.756C75.2484 275.754 63.8525 271.032 55.4498 262.629C47.0471 254.226 42.3254 242.831 42.3231 230.947H26.5078Z" fill="#F0F0F0"/>
<path d="M26.5078 230.947H42.3231C42.3212 223.082 44.3901 215.355 48.3218 208.543C52.2534 201.731 57.9092 196.074 64.7205 192.141C71.5319 188.208 79.2586 186.137 87.1239 186.137C94.9892 186.137 102.716 188.208 109.527 192.142L117.43 178.44C88.6323 161.817 51.2653 171.842 34.633 200.64C29.3141 209.855 26.5121 220.307 26.5078 230.947Z" fill="#EBEBEB"/>
<path d="M281.859 268.661H262.332V291.571H281.859V268.661Z" fill="#F5F5F5"/>
<path d="M305.375 275.569H285.848V291.571H305.375V275.569Z" fill="#E0E0E0"/>
<path d="M328.898 281.457H309.371V291.562H328.898V281.457Z" fill="#F0F0F0"/>
<path d="M208.582 275.569H189.055V291.571H208.582V275.569Z" fill="#F5F5F5"/>
<path d="M232.097 279.113H212.57V291.571H232.097V279.113Z" fill="#E0E0E0"/>
<path d="M255.619 264.727H236.092V291.571H255.619V264.727Z" fill="#F0F0F0"/>
<path d="M355.138 266.53H335.611V291.571H355.138V266.53Z" fill="#F5F5F5"/>
<path d="M378.652 275.569H359.125V291.571H378.652V275.569Z" fill="#E0E0E0"/>
<path d="M402.176 270.517H382.648V291.571H402.176V270.517Z" fill="#F0F0F0"/>
<path d="M173.951 16.2556C173.956 14.4389 174.68 12.698 175.964 11.4133C177.249 10.1287 178.99 9.40496 180.807 9.40027H394.344C396.161 9.40496 397.902 10.1287 399.186 11.4133C400.471 12.698 401.195 14.4389 401.199 16.2556V38.3224H173.951V16.2556Z" fill="#E0E0E0"/>
<path d="M224.193 23.8657C224.193 24.8918 224.498 25.8948 225.068 26.7478C225.638 27.6008 226.449 28.2655 227.397 28.6577C228.345 29.05 229.388 29.1522 230.394 28.9514C231.4 28.7505 232.325 28.2557 233.049 27.5296C233.774 26.8034 234.268 25.8786 234.467 24.872C234.666 23.8655 234.562 22.8225 234.168 21.875C233.774 20.9276 233.108 20.1183 232.254 19.5495C231.4 18.9807 230.396 18.6781 229.37 18.6798C227.997 18.6822 226.68 19.2296 225.709 20.2019C224.739 21.1742 224.193 22.4919 224.193 23.8657Z" fill="#F5F5F5"/>
<path d="M211.006 29.0518C213.87 29.0518 216.192 26.73 216.192 23.8659C216.192 21.0017 213.87 18.6799 211.006 18.6799C208.142 18.6799 205.82 21.0017 205.82 23.8659C205.82 26.73 208.142 29.0518 211.006 29.0518Z" fill="#F5F5F5"/>
<path d="M192.643 29.0518C195.507 29.0518 197.829 26.73 197.829 23.8659C197.829 21.0017 195.507 18.6799 192.643 18.6799C189.779 18.6799 187.457 21.0017 187.457 23.8659C187.457 26.73 189.779 29.0518 192.643 29.0518Z" fill="#F5F5F5"/>
<path d="M394.344 186.938H180.807C178.99 186.933 177.249 186.21 175.964 184.925C174.68 183.64 173.956 181.899 173.951 180.083V38.3224H401.199V180.083C401.195 181.899 400.471 183.64 399.186 184.925C397.902 186.21 396.161 186.933 394.344 186.938Z" fill="#F5F5F5"/>
<path d="M158.65 39.2015C158.657 37.3856 159.382 35.6459 160.666 34.3618C161.95 33.0777 163.69 32.3532 165.506 32.3462H379.043C380.86 32.3509 382.601 33.0746 383.885 34.3593C385.17 35.6439 385.894 37.3848 385.898 39.2015V61.2684H158.65V39.2015Z" fill="#FAFAFA"/>
<path d="M208.893 46.8118C208.893 47.8375 209.197 48.8401 209.767 49.6929C210.336 50.5457 211.146 51.2104 212.094 51.6029C213.042 51.9955 214.084 52.0982 215.09 51.8981C216.096 51.698 217.02 51.204 217.745 50.4788C218.471 49.7535 218.965 48.8295 219.165 47.8235C219.365 46.8175 219.262 45.7748 218.87 44.8272C218.477 43.8796 217.812 43.0697 216.96 42.4998C216.107 41.93 215.104 41.6259 214.078 41.6259C212.703 41.6259 211.384 42.1722 210.411 43.1448C209.439 44.1173 208.893 45.4364 208.893 46.8118Z" fill="#E0E0E0"/>
<path d="M190.529 46.8118C190.529 47.8375 190.833 48.8401 191.403 49.6929C191.973 50.5457 192.783 51.2104 193.731 51.6029C194.678 51.9955 195.721 52.0982 196.727 51.8981C197.733 51.698 198.657 51.204 199.382 50.4788C200.107 49.7535 200.601 48.8295 200.801 47.8235C201.002 46.8175 200.899 45.7748 200.506 44.8272C200.114 43.8796 199.449 43.0697 198.596 42.4998C197.744 41.93 196.741 41.6259 195.715 41.6259C194.34 41.6259 193.021 42.1722 192.048 43.1448C191.076 44.1173 190.529 45.4364 190.529 46.8118Z" fill="#E0E0E0"/>
<path d="M172.166 46.8118C172.166 47.8378 172.47 48.8408 173.041 49.6938C173.611 50.5469 174.421 51.2115 175.369 51.6038C176.318 51.996 177.361 52.0982 178.367 51.8974C179.373 51.6966 180.297 51.2018 181.022 50.4756C181.747 49.7495 182.24 48.8246 182.439 47.8181C182.638 46.8115 182.534 45.7685 182.141 44.8211C181.747 43.8736 181.081 43.0643 180.227 42.4955C179.373 41.9268 178.369 41.6241 177.343 41.6259C175.969 41.6282 174.652 42.1756 173.682 43.1479C172.711 44.1202 172.166 45.4379 172.166 46.8118Z" fill="#E0E0E0"/>
<path d="M379.043 209.884H165.506C163.689 209.879 161.948 209.156 160.663 207.871C159.379 206.586 158.655 204.845 158.65 203.029V61.2683H385.898V203.029C385.894 204.845 385.17 206.586 383.885 207.871C382.601 209.156 380.86 209.879 379.043 209.884Z" fill="#E0E0E0"/>
<path d="M222.001 331.673C317.09 331.673 394.175 327.173 394.175 321.621C394.175 316.069 317.09 311.569 222.001 311.569C126.911 311.569 49.8262 316.069 49.8262 321.621C49.8262 327.173 126.911 331.673 222.001 331.673Z" fill="#F5F5F5"/>
<path d="M381.298 23.04H62.7105C60.4501 23.047 58.284 23.9469 56.684 25.5436C55.084 27.1402 54.1797 29.3045 54.168 31.5648V244.205C54.175 246.468 55.0776 248.636 56.6783 250.235C58.2791 251.834 60.4479 252.734 62.7105 252.739H381.298C383.559 252.732 385.726 251.831 387.325 250.232C388.924 248.633 389.825 246.466 389.832 244.205V31.5648C389.82 29.306 388.917 27.1431 387.319 25.5467C385.721 23.9502 383.557 23.0494 381.298 23.04Z" fill="#404BF2"/>
<path opacity="0.3" d="M381.298 23.04H62.7105C60.4501 23.047 58.284 23.9469 56.684 25.5436C55.084 27.1402 54.1797 29.3045 54.168 31.5648V244.205C54.175 246.468 55.0776 248.636 56.6783 250.235C58.2791 251.834 60.4479 252.734 62.7105 252.739H381.298C383.559 252.732 385.726 251.831 387.325 250.232C388.924 248.633 389.825 246.466 389.832 244.205V31.5648C389.82 29.306 388.917 27.1431 387.319 25.5467C385.721 23.9502 383.557 23.0494 381.298 23.04Z" fill="#F5F5F5"/>
<path d="M119.126 39.7256H70.863C70.1149 39.7556 69.3685 39.634 68.6685 39.3684C67.9685 39.1027 67.3294 38.6984 66.7895 38.1797C66.2496 37.661 65.8201 37.0385 65.5267 36.3497C65.2333 35.6609 65.082 34.9199 65.082 34.1712C65.082 33.4225 65.2333 32.6815 65.5267 31.9927C65.8201 31.3039 66.2496 30.6814 66.7895 30.1627C67.3294 29.644 67.9685 29.2396 68.6685 28.974C69.3685 28.7083 70.1149 28.5868 70.863 28.6167H119.126C119.874 28.5868 120.62 28.7083 121.32 28.974C122.02 29.2396 122.659 29.644 123.199 30.1627C123.739 30.6814 124.169 31.3039 124.462 31.9927C124.756 32.6815 124.907 33.4225 124.907 34.1712C124.907 34.9199 124.756 35.6609 124.462 36.3497C124.169 37.0385 123.739 37.661 123.199 38.1797C122.659 38.6984 122.02 39.1027 121.32 39.3684C120.62 39.634 119.874 39.7556 119.126 39.7256ZM70.863 29.5047C70.2331 29.4773 69.6041 29.5776 69.014 29.7997C68.4239 30.0218 67.8849 30.3611 67.4294 30.7972C66.9739 31.2332 66.6115 31.7569 66.3638 32.3368C66.1162 32.9167 65.9886 33.5407 65.9886 34.1712C65.9886 34.8017 66.1162 35.4257 66.3638 36.0056C66.6115 36.5855 66.9739 37.1092 67.4294 37.5452C67.8849 37.9813 68.4239 38.3205 69.014 38.5427C69.6041 38.7648 70.2331 38.8651 70.863 38.8376H119.126C119.756 38.8651 120.385 38.7648 120.975 38.5427C121.565 38.3205 122.104 37.9813 122.559 37.5452C123.015 37.1092 123.377 36.5855 123.625 36.0056C123.873 35.4257 124 34.8017 124 34.1712C124 33.5407 123.873 32.9167 123.625 32.3368C123.377 31.7569 123.015 31.2332 122.559 30.7972C122.104 30.3611 121.565 30.0218 120.975 29.7997C120.385 29.5776 119.756 29.4773 119.126 29.5047H70.863Z" fill="#FAFAFA"/>
<path d="M142.498 39.7256H136.753C135.318 39.6682 133.961 39.0579 132.966 38.0225C131.972 36.9871 131.416 35.607 131.416 34.1711C131.416 32.7353 131.972 31.3551 132.966 30.3198C133.961 29.2844 135.318 28.6741 136.753 28.6167H142.525C143.959 28.6741 145.316 29.2844 146.311 30.3198C147.306 31.3551 147.862 32.7353 147.862 34.1711C147.862 35.607 147.306 36.9871 146.311 38.0225C145.316 39.0579 143.959 39.6682 142.525 39.7256H142.498ZM136.753 29.5047C135.55 29.5572 134.415 30.0717 133.582 30.9411C132.75 31.8105 132.286 32.9676 132.286 34.1711C132.286 35.3747 132.75 36.5318 133.582 37.4012C134.415 38.2705 135.55 38.7851 136.753 38.8376H142.525C143.727 38.7851 144.863 38.2705 145.695 37.4012C146.527 36.5318 146.992 35.3747 146.992 34.1711C146.992 32.9676 146.527 31.8105 145.695 30.9411C144.863 30.0717 143.727 29.5572 142.525 29.5047H136.753Z" fill="#FAFAFA"/>
<path d="M389.832 45.1068H54.168V236.542H389.832V45.1068Z" fill="#404BF2"/>
<path opacity="0.8" d="M389.832 45.1068H54.168V236.542H389.832V45.1068Z" fill="#F5F5F5"/>
<path opacity="0.9" d="M116.54 207.913C112.811 207.919 109.084 207.709 105.378 207.282C84.0663 204.84 65.3295 194.682 53.9897 179.417C53.9544 179.37 53.9392 179.31 53.9475 179.252C53.9559 179.194 53.987 179.141 54.0341 179.106C54.0812 179.071 54.1404 179.055 54.1987 179.064C54.257 179.072 54.3096 179.103 54.3449 179.15C65.6048 194.317 84.2261 204.414 105.423 206.847C122.375 208.792 140.57 206.243 162.681 198.855C169.217 196.662 175.832 194.166 182.217 191.751C202.703 183.999 223.882 175.98 246.153 176.859C256.809 177.277 267.465 179.754 277.766 182.187C282.845 183.368 288.093 184.585 293.279 185.544C312.895 189.176 327.973 187.684 339.375 180.989C342.573 179.012 345.632 176.82 348.53 174.426C352.571 171.256 356.736 167.97 361.522 165.919C366.108 164.04 371.073 163.274 376.012 163.683C380.951 164.092 385.723 165.665 389.938 168.272C389.963 168.287 389.985 168.306 390.002 168.33C390.02 168.353 390.032 168.38 390.039 168.408C390.045 168.436 390.046 168.466 390.041 168.494C390.036 168.523 390.025 168.55 390.009 168.574C389.994 168.599 389.975 168.621 389.951 168.639C389.928 168.656 389.902 168.668 389.873 168.675C389.845 168.682 389.816 168.682 389.787 168.677C389.758 168.672 389.731 168.661 389.707 168.645C385.55 166.075 380.844 164.524 375.973 164.122C371.102 163.719 366.204 164.475 361.682 166.328C356.958 168.352 352.802 171.656 348.797 174.781C345.88 177.183 342.807 179.387 339.597 181.379C328.098 188.128 312.913 189.629 293.19 185.979C287.995 185.02 282.738 183.795 277.659 182.614C267.376 180.225 256.738 177.747 246.126 177.339C223.98 176.451 202.827 184.443 182.377 192.204C175.974 194.628 169.35 197.132 162.841 199.308C145.409 205.08 130.411 207.913 116.54 207.913Z" fill="#FAFAFA"/>
<g style="mix-blend-mode:multiply">
<path d="M334.501 132.397C318.65 132.397 301.565 128.481 281.167 120.196C274.623 117.532 267.998 114.566 261.631 111.689C241.207 102.489 220.029 92.9789 197.882 92.2685C187.226 91.931 176.641 93.6449 166.358 95.3054C161.27 96.1224 156.013 96.9749 150.818 97.561C131.095 99.8076 115.92 97.2146 104.42 89.6489C101.205 87.4287 98.132 85.0085 95.2203 82.4028C91.171 78.984 87.024 75.432 82.291 73.0255C77.9325 70.8461 73.1168 69.7382 68.2441 69.7938C63.3714 69.8494 58.5823 71.0669 54.2746 73.3452C54.2224 73.3713 54.1622 73.3767 54.1062 73.3602C54.0501 73.3437 54.0024 73.3066 53.9727 73.2564C53.9586 73.2308 53.9497 73.2026 53.9466 73.1735C53.9435 73.1444 53.9461 73.115 53.9543 73.087C53.9626 73.0589 53.9763 73.0328 53.9947 73.01C54.0131 72.9873 54.0358 72.9684 54.0615 72.9545C58.4322 70.6492 63.2887 69.4171 68.2298 69.36C73.1709 69.3029 78.0546 70.4223 82.4775 72.6259C87.2549 75.0146 91.4285 78.5933 95.46 82.0654C98.3564 84.6598 101.414 87.0682 104.615 89.2759C116.017 96.7884 131.104 99.3547 150.72 97.117C155.906 96.5309 161.154 95.6873 166.234 94.8614C176.534 93.2009 187.19 91.487 197.838 91.8245C220.082 92.5438 241.27 102.063 261.774 111.281C268.176 114.158 274.792 117.132 281.31 119.788C303.421 128.765 321.598 132.601 338.568 131.864C359.755 130.976 378.368 122.185 389.628 107.826C389.648 107.805 389.672 107.788 389.698 107.777C389.725 107.765 389.754 107.759 389.783 107.759C389.812 107.759 389.841 107.765 389.868 107.777C389.895 107.788 389.919 107.805 389.939 107.826C389.962 107.844 389.982 107.866 389.996 107.891C390.011 107.916 390.021 107.944 390.025 107.972C390.029 108.001 390.028 108.031 390.02 108.059C390.013 108.087 390 108.114 389.983 108.137C378.643 122.594 359.906 131.42 338.586 132.344C337.254 132.371 335.877 132.397 334.501 132.397Z" fill="#404BF2"/>
</g>
<path opacity="0.7" d="M334.501 132.397C318.65 132.397 301.565 128.481 281.167 120.196C274.623 117.532 267.998 114.566 261.631 111.689C241.207 102.489 220.029 92.9789 197.882 92.2685C187.226 91.931 176.641 93.6449 166.358 95.3054C161.27 96.1224 156.013 96.9749 150.818 97.561C131.095 99.8076 115.92 97.2146 104.42 89.6489C101.205 87.4287 98.132 85.0085 95.2203 82.4028C91.171 78.984 87.024 75.432 82.291 73.0255C77.9325 70.8461 73.1168 69.7382 68.2441 69.7938C63.3714 69.8494 58.5823 71.0669 54.2746 73.3452C54.2224 73.3713 54.1622 73.3767 54.1062 73.3602C54.0501 73.3437 54.0024 73.3066 53.9727 73.2564C53.9586 73.2308 53.9497 73.2026 53.9466 73.1735C53.9435 73.1444 53.9461 73.115 53.9543 73.087C53.9626 73.0589 53.9763 73.0328 53.9947 73.01C54.0131 72.9873 54.0358 72.9684 54.0615 72.9545C58.4322 70.6492 63.2887 69.4171 68.2298 69.36C73.1709 69.3029 78.0546 70.4223 82.4775 72.6259C87.2549 75.0146 91.4285 78.5933 95.46 82.0654C98.3564 84.6598 101.414 87.0682 104.615 89.2759C116.017 96.7884 131.104 99.3547 150.72 97.117C155.906 96.5309 161.154 95.6873 166.234 94.8614C176.534 93.2009 187.19 91.487 197.838 91.8245C220.082 92.5438 241.27 102.063 261.774 111.281C268.176 114.158 274.792 117.132 281.31 119.788C303.421 128.765 321.598 132.601 338.568 131.864C359.755 130.976 378.368 122.185 389.628 107.826C389.648 107.805 389.672 107.788 389.698 107.777C389.725 107.765 389.754 107.759 389.783 107.759C389.812 107.759 389.841 107.765 389.868 107.777C389.895 107.788 389.919 107.805 389.939 107.826C389.962 107.844 389.982 107.866 389.996 107.891C390.011 107.916 390.021 107.944 390.025 107.972C390.029 108.001 390.028 108.031 390.02 108.059C390.013 108.087 390 108.114 389.983 108.137C378.643 122.594 359.906 131.42 338.586 132.344C337.254 132.371 335.877 132.397 334.501 132.397Z" fill="#F5F5F5"/>
<path d="M363.609 230.557H80.3907C75.0279 230.55 69.8868 228.416 66.0947 224.624C62.3026 220.832 60.1692 215.691 60.1621 210.328V71.3295C60.1692 65.9667 62.3026 60.8255 66.0947 57.0334C69.8868 53.2414 75.0279 51.1079 80.3907 51.1008H363.609C368.972 51.1079 374.113 53.2414 377.905 57.0334C381.698 60.8255 383.831 65.9667 383.838 71.3295V210.328C383.831 215.691 381.698 220.832 377.905 224.624C374.113 228.416 368.972 230.55 363.609 230.557ZM80.3907 51.5448C75.1457 51.5519 70.1175 53.6386 66.4087 57.3474C62.6999 61.0562 60.6132 66.0844 60.6061 71.3295V210.328C60.6132 215.573 62.6999 220.601 66.4087 224.31C70.1175 228.019 75.1457 230.106 80.3907 230.113H363.609C368.855 230.106 373.883 228.019 377.592 224.31C381.3 220.601 383.387 215.573 383.394 210.328V71.3295C383.387 66.0844 381.3 61.0562 377.592 57.3474C373.883 53.6386 368.855 51.5519 363.609 51.5448H80.3907Z" fill="#FAFAFA"/>
<path d="M95.371 162.909H78.8809V236.551H95.371V162.909Z" fill="#FAFAFA"/>
<path d="M119.898 147.875H103.408V236.542H119.898V147.875Z" fill="#FAFAFA"/>
<path d="M144.416 133.117H127.926V236.551H144.416V133.117Z" fill="#FAFAFA"/>
<path d="M168.941 115.019H152.451V236.542H168.941V115.019Z" fill="#FAFAFA"/>
<path d="M193.459 140.824H176.969V236.542H193.459V140.824Z" fill="#FAFAFA"/>
<path d="M217.986 104.958H201.496V236.551H217.986V104.958Z" fill="#404BF2"/>
<path opacity="0.2" d="M217.986 104.958H201.496V236.551H217.986V104.958Z" fill="white"/>
<path d="M212.143 111.751C211.095 114.633 209.169 117.113 206.635 118.841C204.101 120.568 201.089 121.455 198.023 121.377V99.5323H211.148C212.19 101.375 212.818 103.422 212.99 105.532C213.162 107.642 212.873 109.764 212.143 111.751Z" fill="#404BF2"/>
<path opacity="0.2" d="M212.143 111.751C211.095 114.633 209.169 117.113 206.635 118.841C204.101 120.568 201.089 121.455 198.023 121.377V99.5323H211.148C212.19 101.375 212.818 103.422 212.99 105.532C213.162 107.642 212.873 109.764 212.143 111.751Z" fill="white"/>
<path d="M242.504 149.749H226.014V236.542H242.504V149.749Z" fill="#FAFAFA"/>
<path d="M267.031 120.64H250.541V236.551H267.031V120.64Z" fill="#FAFAFA"/>
<path d="M291.549 207.549H275.059V236.542H291.549V207.549Z" fill="#404BF2"/>
<path opacity="0.3" d="M291.549 207.549H275.059V236.542H291.549V207.549Z" fill="black"/>
<path d="M316.074 113.359H299.584V236.551H316.074V113.359Z" fill="#FAFAFA"/>
<path d="M340.592 79.2061H324.102V236.551H340.592V79.2061Z" fill="#404BF2"/>
<path opacity="0.2" d="M340.592 79.2061H324.102V236.551H340.592V79.2061Z" fill="white"/>
<path d="M365.119 152.111H348.629V236.542H365.119V152.111Z" fill="#FAFAFA"/>
<path opacity="0.3" d="M212.144 111.751C211.097 114.633 209.17 117.113 206.637 118.841C204.103 120.568 201.09 121.455 198.025 121.377C196.441 121.338 194.875 121.038 193.389 120.489C190.668 119.498 188.303 117.721 186.591 115.385C184.879 113.049 183.899 110.258 183.773 107.365C183.648 104.471 184.384 101.606 185.887 99.1304C187.39 96.6551 189.593 94.681 192.218 93.4579C194.844 92.2347 197.772 91.8175 200.635 92.2588C203.497 92.7002 206.164 93.9804 208.299 95.9375C210.433 97.8946 211.94 100.441 212.627 103.254C213.315 106.067 213.153 109.021 212.162 111.742L212.144 111.751Z" fill="#FAFAFA"/>
<path opacity="0.4" d="M209.879 97.6319L184.038 109.673C183.993 109.451 183.949 109.238 183.913 109.016C183.685 107.594 183.67 106.145 183.869 104.718L206.185 94.3197C207.597 95.2035 208.847 96.324 209.879 97.6319Z" fill="#FAFAFA"/>
<path opacity="0.4" d="M213.031 106.45L188.735 117.763C187.046 116.289 185.721 114.444 184.863 112.373L211.388 100.012C212.422 102.003 212.984 104.206 213.031 106.45Z" fill="#FAFAFA"/>
<path d="M204.16 90.8654C201.024 89.7291 197.623 89.5475 194.384 90.3434C191.146 91.1393 188.216 92.8771 185.964 95.3372C183.713 97.7973 182.241 100.869 181.735 104.166C181.228 107.462 181.71 110.834 183.119 113.857C184.528 116.879 186.801 119.416 189.651 121.148C192.502 122.879 195.801 123.727 199.133 123.584C202.464 123.442 205.679 122.315 208.371 120.346C211.063 118.378 213.111 115.656 214.256 112.524C215.019 110.439 215.363 108.224 215.268 106.006C215.173 103.788 214.641 101.611 213.703 99.5991C212.765 97.5871 211.439 95.78 209.802 94.2813C208.164 92.7826 206.247 91.6218 204.16 90.8654ZM193.823 119.281C191.349 118.381 189.198 116.767 187.64 114.644C186.083 112.521 185.19 109.984 185.073 107.354C184.957 104.723 185.623 102.117 186.987 99.8651C188.351 97.613 190.352 95.8155 192.737 94.6999C195.122 93.5843 197.784 93.2006 200.387 93.5971C202.989 93.9936 205.417 95.1527 207.361 96.9279C209.306 98.7031 210.68 101.015 211.312 103.571C211.943 106.127 211.803 108.813 210.909 111.289C210.312 112.936 209.396 114.448 208.214 115.74C207.032 117.033 205.607 118.079 204.02 118.82C202.433 119.56 200.715 119.981 198.966 120.057C197.216 120.133 195.469 119.864 193.823 119.264V119.281Z" fill="#404BF2"/>
<path opacity="0.3" d="M204.16 90.8654C201.024 89.7291 197.623 89.5475 194.384 90.3434C191.146 91.1393 188.216 92.8771 185.964 95.3372C183.713 97.7973 182.241 100.869 181.735 104.166C181.228 107.462 181.71 110.834 183.119 113.857C184.528 116.879 186.801 119.416 189.651 121.148C192.502 122.879 195.801 123.727 199.133 123.584C202.464 123.442 205.679 122.315 208.371 120.346C211.063 118.378 213.111 115.656 214.256 112.524C215.019 110.439 215.363 108.224 215.268 106.006C215.173 103.788 214.641 101.611 213.703 99.5991C212.765 97.5871 211.439 95.78 209.802 94.2813C208.164 92.7826 206.247 91.6218 204.16 90.8654ZM193.823 119.281C191.349 118.381 189.198 116.767 187.64 114.644C186.083 112.521 185.19 109.984 185.073 107.354C184.957 104.723 185.623 102.117 186.987 99.8651C188.351 97.613 190.352 95.8155 192.737 94.6999C195.122 93.5843 197.784 93.2006 200.387 93.5971C202.989 93.9936 205.417 95.1527 207.361 96.9279C209.306 98.7031 210.68 101.015 211.312 103.571C211.943 106.127 211.803 108.813 210.909 111.289C210.312 112.936 209.396 114.448 208.214 115.74C207.032 117.033 205.607 118.079 204.02 118.82C202.433 119.56 200.715 119.981 198.966 120.057C197.216 120.133 195.469 119.864 193.823 119.264V119.281Z" fill="black"/>
<path d="M194.872 121.297C194.029 125.373 192.857 129.342 191.64 133.285C190.992 135.248 190.388 137.219 189.686 139.155L188.656 142.076C188.495 142.633 188.207 143.145 187.816 143.573C187.425 144.001 186.941 144.334 186.401 144.545C185.826 144.79 185.179 144.808 184.592 144.593C184.005 144.379 183.521 143.949 183.24 143.391C182.961 142.882 182.803 142.317 182.779 141.738C182.754 141.159 182.863 140.582 183.097 140.052L184.19 137.157C184.9 135.221 185.708 133.321 186.472 131.403C188.07 127.593 189.731 123.81 191.711 120.143C191.9 119.776 192.217 119.49 192.602 119.34C192.986 119.189 193.413 119.185 193.801 119.326C194.189 119.468 194.512 119.746 194.709 120.109C194.906 120.472 194.964 120.894 194.872 121.297Z" fill="#404BF2"/>
<path opacity="0.3" d="M194.872 121.297C194.029 125.373 192.857 129.342 191.64 133.285C190.992 135.248 190.388 137.219 189.686 139.155L188.656 142.076C188.495 142.633 188.207 143.145 187.816 143.573C187.425 144.001 186.941 144.334 186.401 144.545C185.826 144.79 185.179 144.808 184.592 144.593C184.005 144.379 183.521 143.949 183.24 143.391C182.961 142.882 182.803 142.317 182.779 141.738C182.754 141.159 182.863 140.582 183.097 140.052L184.19 137.157C184.9 135.221 185.708 133.321 186.472 131.403C188.07 127.593 189.731 123.81 191.711 120.143C191.9 119.776 192.217 119.49 192.602 119.34C192.986 119.189 193.413 119.185 193.801 119.326C194.189 119.468 194.512 119.746 194.709 120.109C194.906 120.472 194.964 120.894 194.872 121.297Z" fill="black"/>
<path d="M129.24 117.417C129.08 117.639 128.822 118.029 128.618 118.349L127.952 119.388C127.517 120.09 127.064 120.809 126.709 121.546C125.91 122.986 125.19 124.468 124.551 125.986C123.294 128.931 122.515 132.057 122.242 135.248V135.843V135.967C122.242 136.047 122.402 136.304 122.855 136.562C124.136 137.174 125.517 137.547 126.931 137.663C130.343 137.995 133.779 138.025 137.196 137.752L137.969 141.437C134.309 142.623 130.501 143.29 126.656 143.417C125.62 143.426 124.585 143.369 123.557 143.249C122.387 143.111 121.243 142.812 120.156 142.361C118.729 141.794 117.496 140.829 116.604 139.581C116.12 138.857 115.774 138.05 115.582 137.201C115.435 136.51 115.367 135.804 115.378 135.097C115.367 131.041 116.12 127.019 117.598 123.242C118.279 121.398 119.086 119.603 120.014 117.87C120.475 116.982 120.973 116.165 121.488 115.33C121.745 114.913 122.012 114.495 122.296 114.087C122.58 113.678 122.837 113.296 123.184 112.799L129.24 117.417Z" fill="#E4897B"/>
<path d="M126.584 105.065C123.512 105.81 116.248 117.923 116.248 117.923L132.525 124.663C132.525 124.663 135.464 115.445 133.617 111.76C131.699 107.924 130.731 104.043 126.584 105.065Z" fill="#404BF2"/>
<path opacity="0.2" d="M126.584 105.065C123.512 105.81 116.248 117.923 116.248 117.923L132.525 124.663C132.525 124.663 135.464 115.445 133.617 111.76C131.699 107.924 130.731 104.043 126.584 105.065Z" fill="black"/>
<path d="M137.881 137.37L145.34 136.58L141.193 142.849C141.193 142.849 136.433 142.414 135.217 139.563L137.881 137.37Z" fill="#E4897B"/>
<path d="M150.659 139.901L144.931 146.126L141.148 142.849L145.34 136.58L150.659 139.901Z" fill="#E4897B"/>
<path d="M128.068 318.051C127.403 318.035 126.742 317.945 126.096 317.785C126.064 317.776 126.034 317.758 126.012 317.733C125.99 317.708 125.976 317.676 125.972 317.643C125.966 317.61 125.969 317.575 125.981 317.544C125.994 317.512 126.015 317.485 126.043 317.465C126.3 317.297 128.538 315.84 129.417 316.231C129.515 316.276 129.599 316.345 129.661 316.432C129.724 316.519 129.762 316.622 129.773 316.728C129.806 316.897 129.797 317.072 129.746 317.236C129.695 317.401 129.603 317.55 129.479 317.67C129.068 317.959 128.568 318.094 128.068 318.051ZM126.602 317.536C127.899 317.794 128.867 317.749 129.266 317.403C129.349 317.325 129.408 317.226 129.44 317.116C129.471 317.007 129.472 316.892 129.444 316.782C129.444 316.732 129.43 316.684 129.403 316.643C129.377 316.602 129.338 316.57 129.293 316.551C128.813 316.355 127.517 316.968 126.602 317.536Z" fill="#404BF2"/>
<path d="M126.14 317.794C126.094 317.792 126.05 317.772 126.017 317.739C125.984 317.707 125.965 317.663 125.963 317.616C125.963 317.527 125.963 315.387 126.762 314.668C126.86 314.574 126.978 314.503 127.107 314.462C127.236 314.42 127.374 314.409 127.508 314.428C127.649 314.43 127.786 314.48 127.894 314.571C128.003 314.662 128.076 314.787 128.103 314.926C128.272 315.76 126.931 317.368 126.229 317.767C126.203 317.784 126.172 317.793 126.14 317.794ZM127.384 314.775C127.24 314.775 127.103 314.833 127.002 314.935C126.539 315.624 126.303 316.44 126.327 317.27C127.028 316.711 127.863 315.494 127.757 314.997C127.757 314.908 127.694 314.81 127.464 314.784L127.384 314.775Z" fill="#404BF2"/>
<path d="M161.901 318.051C161.113 318.034 160.329 317.945 159.557 317.785C159.522 317.779 159.49 317.762 159.466 317.737C159.442 317.711 159.427 317.678 159.424 317.643C159.416 317.606 159.42 317.568 159.436 317.534C159.452 317.501 159.479 317.473 159.513 317.456C159.85 317.288 162.798 315.769 163.713 316.266C163.799 316.312 163.873 316.38 163.926 316.462C163.979 316.545 164.009 316.639 164.015 316.737C164.042 316.899 164.028 317.066 163.973 317.221C163.919 317.376 163.826 317.515 163.704 317.625C163.168 317.966 162.533 318.117 161.901 318.051ZM160.125 317.536C161.777 317.812 163.002 317.741 163.455 317.332C163.529 317.261 163.586 317.173 163.62 317.076C163.654 316.978 163.664 316.875 163.651 316.773C163.65 316.732 163.638 316.692 163.616 316.657C163.594 316.623 163.563 316.595 163.526 316.577C163.047 316.311 161.36 316.968 160.143 317.536H160.125Z" fill="#404BF2"/>
<path d="M159.592 317.794C159.56 317.806 159.525 317.806 159.494 317.794C159.468 317.776 159.448 317.752 159.434 317.724C159.42 317.696 159.413 317.665 159.414 317.634C159.414 317.554 159.583 315.547 160.515 314.775C160.648 314.658 160.803 314.57 160.971 314.517C161.139 314.464 161.317 314.445 161.492 314.464C161.981 314.517 162.123 314.766 162.149 314.97C162.291 315.858 160.569 317.403 159.663 317.812L159.592 317.794ZM161.368 314.775C161.142 314.776 160.925 314.858 160.755 315.005C160.234 315.665 159.924 316.467 159.867 317.305C160.755 316.755 161.954 315.529 161.865 314.988C161.865 314.988 161.865 314.81 161.519 314.783L161.368 314.775Z" fill="#404BF2"/>
<path d="M139.558 87.0736C140.446 91.5136 142.471 100.394 139.398 103.368C139.398 103.368 140.633 107.808 148.838 107.808C157.851 107.808 153.118 103.368 153.118 103.368C148.19 102.196 148.287 98.5466 149.131 95.1189L139.558 87.0736Z" fill="#E4897B"/>
<path d="M158.172 79.2148C158.075 79.2139 157.983 79.1757 157.914 79.1082C157.849 79.0418 157.812 78.9526 157.812 78.8596C157.813 78.7666 157.849 78.6774 157.914 78.611C158.314 78.2234 158.8 77.9354 159.332 77.7704C159.865 77.6053 160.428 77.5678 160.978 77.6608C161.023 77.6712 161.066 77.6906 161.103 77.7178C161.141 77.745 161.173 77.7795 161.197 77.8193C161.221 77.8591 161.237 77.9033 161.243 77.9493C161.25 77.9953 161.247 78.0421 161.235 78.0871C161.226 78.1322 161.207 78.175 161.181 78.2129C161.155 78.2509 161.121 78.2832 161.083 78.308C161.044 78.3328 161 78.3497 160.955 78.3574C160.909 78.3652 160.863 78.3639 160.818 78.3534C160.382 78.2765 159.934 78.3058 159.512 78.4387C159.09 78.5717 158.707 78.8044 158.394 79.1171C158.365 79.1474 158.331 79.1717 158.292 79.1885C158.254 79.2053 158.213 79.2142 158.172 79.2148Z" fill="#263238"/>
<path d="M159.255 83.7526C159.466 85.2113 159.879 86.6337 160.48 87.9794C160.132 88.1229 159.757 88.1878 159.381 88.1693C159.004 88.1509 158.637 88.0497 158.305 87.8729L159.255 83.7526Z" fill="#DE5753"/>
<path d="M158.953 82.6248C158.82 83.2108 159.024 83.7614 159.406 83.8502C159.788 83.939 160.205 83.5394 160.294 82.9622C160.383 82.385 160.232 81.8344 159.85 81.7367C159.468 81.6391 159.095 82.0387 158.953 82.6248Z" fill="#263238"/>
<path d="M159.725 81.719L161.216 81.6479C161.216 81.6479 160.249 82.5803 159.725 81.719Z" fill="#263238"/>
<path d="M151.414 317.616H158.856L159.237 300.389H151.796L151.414 317.616Z" fill="#E4897B"/>
<path d="M117.615 317.616H125.057L127.339 300.389H119.897L117.615 317.616Z" fill="#E4897B"/>
<path d="M125.511 316.755H117.155C117.011 316.752 116.872 316.802 116.764 316.895C116.656 316.989 116.586 317.119 116.568 317.261L115.68 323.877C115.666 324.044 115.686 324.213 115.74 324.373C115.794 324.532 115.88 324.679 115.994 324.803C116.107 324.928 116.245 325.027 116.399 325.095C116.553 325.164 116.72 325.199 116.888 325.2C119.801 325.146 121.204 324.978 124.88 324.978C127.136 324.978 130.439 325.209 133.565 325.209C136.691 325.209 136.833 322.118 135.527 321.843C129.693 320.591 128.761 318.859 126.789 317.208C126.429 316.912 125.977 316.751 125.511 316.755Z" fill="#263238"/>
<path d="M159.103 316.755H150.747C150.604 316.753 150.464 316.804 150.355 316.897C150.246 316.99 150.174 317.119 150.152 317.261L149.264 323.877C149.247 324.044 149.265 324.214 149.317 324.374C149.37 324.534 149.455 324.681 149.568 324.806C149.681 324.931 149.819 325.03 149.974 325.098C150.128 325.166 150.295 325.201 150.463 325.2C153.376 325.146 154.779 324.978 158.455 324.978C160.719 324.978 165.399 325.209 168.516 325.209C171.633 325.209 171.784 322.118 170.487 321.843C164.644 320.591 162.345 318.859 160.364 317.208C160.01 316.913 159.564 316.753 159.103 316.755Z" fill="#263238"/>
<path d="M159.236 300.398L159.041 309.269H151.6L151.795 300.398H159.236Z" fill="#CE6F64"/>
<path d="M119.898 300.398H127.339L126.158 309.269H118.717L119.898 300.398Z" fill="#CE6F64"/>
<path d="M165.702 105.278C165.702 105.278 169.254 106.53 162.443 150.166H132.251C132.677 137.876 132.642 130.293 126.604 105.065C130.828 104.191 135.111 103.624 139.417 103.368C143.985 103.048 148.569 103.048 153.137 103.368C159.016 103.91 165.702 105.278 165.702 105.278Z" fill="#404BF2"/>
<path opacity="0.2" d="M165.702 105.278C165.702 105.278 169.254 106.53 162.443 150.166H132.251C132.677 137.876 132.642 130.293 126.604 105.065C130.828 104.191 135.111 103.624 139.417 103.368C143.985 103.048 148.569 103.048 153.137 103.368C159.016 103.91 165.702 105.278 165.702 105.278Z" fill="black"/>
<path d="M168.144 113.554C168.792 117.363 169.635 121.35 170.586 125.151C171.074 127.06 171.624 128.943 172.237 130.772C172.809 132.562 173.507 134.31 174.324 136.002C174.695 136.783 175.119 137.536 175.594 138.258C175.816 138.604 176.047 138.897 176.278 139.199C176.413 139.378 176.565 139.545 176.73 139.697C176.945 139.907 177.229 140.031 177.53 140.043C178.122 140.034 178.705 139.891 179.235 139.626C180.807 138.838 182.255 137.824 183.533 136.615C184.225 135.976 184.927 135.301 185.61 134.608C186.294 133.916 186.969 133.152 187.582 132.468L190.761 134.484C190.276 135.469 189.736 136.427 189.145 137.352C188.571 138.275 187.946 139.164 187.271 140.016C185.863 141.919 184.136 143.563 182.165 144.874C180.939 145.683 179.545 146.205 178.089 146.401C176.325 146.618 174.539 146.227 173.028 145.291C172.35 144.858 171.727 144.345 171.172 143.764C170.738 143.297 170.329 142.808 169.946 142.298C169.234 141.367 168.587 140.388 168.01 139.368C165.978 135.489 164.39 131.393 163.277 127.158C162.709 125.107 162.176 123.055 161.75 120.942C161.324 118.829 160.924 116.831 160.613 114.646L168.144 113.554Z" fill="#E4897B"/>
<path d="M165.701 105.278C168.773 106.059 171.029 118.678 171.029 118.678L159.254 126.714C159.254 126.714 154.432 111.689 156.767 108.324C159.174 104.807 161.225 104.141 165.701 105.278Z" fill="#404BF2"/>
<path opacity="0.2" d="M165.701 105.278C168.773 106.059 171.029 118.678 171.029 118.678L159.254 126.714C159.254 126.714 154.432 111.689 156.767 108.324C159.174 104.807 161.225 104.141 165.701 105.278Z" fill="black"/>
<path d="M190.344 135.061L194.375 129.307L187.369 129.156C187.369 129.156 185.717 132.486 186.836 135.372L190.344 135.061Z" fill="#E4897B"/>
<path d="M195.004 126.306L194.791 125.746C194.744 125.625 194.669 125.516 194.573 125.43C194.476 125.343 194.361 125.28 194.235 125.246C194.11 125.212 193.978 125.209 193.851 125.235C193.724 125.262 193.605 125.318 193.503 125.4L191.523 126.98C191.236 127.213 190.882 127.35 190.513 127.373C190.144 127.395 189.777 127.301 189.463 127.105L188.85 126.412C188.79 126.34 188.715 126.281 188.63 126.241C188.545 126.201 188.452 126.18 188.357 126.18C188.263 126.18 188.17 126.201 188.085 126.241C188 126.281 187.925 126.34 187.865 126.412L187.714 126.59C187.392 126.981 187.189 127.455 187.128 127.957L186.781 130.852L188.255 129.689L194.383 129.289L194.951 128.064C195.078 127.789 195.148 127.492 195.157 127.19C195.166 126.888 195.114 126.587 195.004 126.306Z" fill="#E4897B"/>
<path d="M139.798 75.9648C138.582 83.2553 137.916 86.31 140.686 90.8565C144.86 97.6853 154.06 97.6409 157.416 90.8565C160.444 84.7737 161.919 73.878 155.56 69.3581C154.17 68.3518 152.544 67.7201 150.839 67.5235C149.134 67.3269 147.407 67.5722 145.824 68.2357C144.241 68.8991 142.856 69.9585 141.801 71.3121C140.745 72.6657 140.056 74.2679 139.798 75.9648Z" fill="#E4897B"/>
<path d="M159.273 116.946C166.377 125.666 153.057 136.58 136.46 133.117C112.697 128.144 132.908 117.834 125.014 110.357C117.12 102.88 124.055 98.227 128.859 92.677C133.663 87.127 134.027 86.9583 133.672 76.32C133.317 65.6818 145.278 63 154.238 66.037C160.756 68.257 157.79 78.3624 153.998 83.5572C150.206 88.752 160.569 91.9311 159.886 99.0351C159.202 106.139 152.604 108.803 159.273 116.946Z" fill="#263238"/>
<path d="M148.482 64.9181C156.101 64.11 161.19 65.0868 161.802 71.4093C162.415 77.7319 153.047 81.426 153.047 81.426L148.482 64.9181Z" fill="#263238"/>
<path d="M151.689 82.3229C151.523 83.746 151.921 85.1777 152.799 86.31C153.98 87.793 155.668 87.0116 156.263 85.3244C156.804 83.8059 156.831 81.1952 155.206 80.316C154.848 80.132 154.45 80.0402 154.048 80.0489C153.646 80.0576 153.253 80.1666 152.903 80.3659C152.554 80.5653 152.26 80.8487 152.048 81.1904C151.836 81.5322 151.713 81.9214 151.689 82.3229Z" fill="#E4897B"/>
<path d="M154.459 150.175C154.459 150.175 152.79 165.502 150.57 184.052C149.149 195.889 147.506 209.04 145.926 220.362C145.535 223.231 145.135 225.975 144.754 228.559C141.29 251.798 127.944 307.591 127.944 307.591H117.803C117.803 307.591 123.468 253.698 125.155 230.708C129.427 172.553 122.642 163.69 132.259 150.21L154.459 150.175Z" fill="#263238"/>
<path d="M129.613 307.724H116.133L116.364 302.929L130.723 302.565L129.613 307.724Z" fill="#404BF2"/>
<path opacity="0.8" d="M129.613 307.724H116.133L116.364 302.929L130.723 302.565L129.613 307.724Z" fill="white"/>
<path opacity="0.4" d="M150.57 184.052C149.149 195.889 147.506 209.04 145.926 220.362C143.564 208.339 138.236 178.626 146.609 173.405C148.625 176.069 149.877 179.79 150.57 184.052Z" fill="black"/>
<path d="M162.442 150.166C162.442 150.166 167.246 206.039 166.882 228.718C166.527 252.313 160.578 307.555 160.578 307.555H150.552C150.552 307.555 149.451 253.689 148.412 230.521C147.275 205.258 140.322 150.166 140.322 150.166H162.442Z" fill="#263238"/>
<path d="M162.123 307.724H148.892L148.652 302.929L163.233 302.565L162.123 307.724Z" fill="#404BF2"/>
<path opacity="0.8" d="M162.123 307.724H148.892L148.652 302.929L163.233 302.565L162.123 307.724Z" fill="white"/>
<path d="M131.77 148.399L130.42 151.063C130.322 151.276 130.571 151.489 130.917 151.489H162.601C162.867 151.489 163.098 151.356 163.107 151.187L163.365 148.523C163.365 148.337 163.143 148.177 162.85 148.177H132.258C132.164 148.168 132.07 148.184 131.984 148.223C131.899 148.262 131.825 148.323 131.77 148.399Z" fill="#404BF2"/>
<path opacity="0.5" d="M131.77 148.399L130.42 151.063C130.322 151.276 130.571 151.489 130.917 151.489H162.601C162.867 151.489 163.098 151.356 163.107 151.187L163.365 148.523C163.365 148.337 163.143 148.177 162.85 148.177H132.258C132.164 148.168 132.07 148.184 131.984 148.223C131.899 148.262 131.825 148.323 131.77 148.399Z" fill="white"/>
<path d="M135.865 151.8H135.048C134.88 151.8 134.755 151.72 134.764 151.613L135.128 148.061C135.128 147.964 135.279 147.875 135.448 147.875H136.265C136.425 147.875 136.549 147.964 136.54 148.061L136.176 151.613C136.203 151.738 136.061 151.8 135.865 151.8Z" fill="#263238"/>
<path d="M155.755 151.8H154.938C154.778 151.8 154.654 151.72 154.663 151.613L155.018 148.061C155.018 147.964 155.178 147.875 155.337 147.875H156.154C156.323 147.875 156.447 147.964 156.439 148.061L156.074 151.613C156.066 151.738 155.924 151.8 155.755 151.8Z" fill="#263238"/>
</svg>
